<svg width="22" height="21" viewBox="0 0 22 21" fill="none" xmlns="http://www.w3.org/2000/svg">
<path d="M21 10.5C21.0016 11.7513 20.7423 12.9905 20.2369 14.146C19.7315 15.3015 18.9901 16.3504 18.0555 17.2322C17.1285 18.1112 16.0282 18.808 14.8176 19.283C13.607 19.7579 12.3098 20.0015 11 20C5.47701 20 1.00001 15.7468 1.00001 10.5C0.99641 8.06407 1.98136 5.72057 3.75001 3.95688C4.68312 3.02135 5.8074 2.27657 7.05402 1.76815C8.30063 1.25972 9.64336 0.998341 11 1.00001C12.3098 0.998474 13.607 1.24213 14.8176 1.71704C16.0282 2.19195 17.1285 2.88882 18.0555 3.76783C18.9901 4.64957 19.7315 5.69849 20.2369 6.854C20.7423 8.00952 21.0016 9.24871 21 10.5Z" stroke="white" stroke-width="2" stroke-linecap="round" stroke-linejoin="round"/>
<path d="M21 10.5C19.541 10.5 15.516 9.97754 11.9135 11.48C8.00001 13.1125 5.16652 15.6452 3.93152 17.2199" stroke="white" stroke-width="2" stroke-linecap="round" stroke-linejoin="round"/>
<path d="M7.25 1.69043C8.815 3.0627 12.23 6.55633 13.5 10.0248C14.77 13.4932 15.24 17.7578 15.53 18.9714" stroke="white" stroke-width="2" stroke-linecap="round" stroke-linejoin="round"/>
<path d="M1.07703 9.31249C2.96602 9.42079 7.96652 9.51816 11.1665 8.21999C14.3665 6.92181 17.12 4.53399 18.0645 3.77637M1.75003 14.1162C2.63132 16.1424 4.22048 17.8183 6.25002 18.8619" stroke="white" stroke-width="2" stroke-linecap="round" stroke-linejoin="round"/>
<path d="M1.00001 10.5C0.99641 8.06407 1.98136 5.72057 3.75001 3.95688C4.68312 3.02135 5.8074 2.27657 7.05402 1.76815C8.30063 1.25972 9.64336 0.998341 11 1.00001M15 1.79041C16.139 2.2634 17.1752 2.934 18.0555 3.76783C18.9901 4.64957 19.7315 5.69849 20.2369 6.854C20.7423 8.00952 21.0016 9.24871 21 10.5C21 11.6694 20.7775 12.79 20.37 13.825M11 20C12.3098 20.0015 13.607 19.7579 14.8176 19.283C16.0282 18.808 17.1285 18.1112 18.0555 17.2322" stroke="white" stroke-width="2" stroke-linecap="round" stroke-linejoin="round"/>
</svg>
